<?xml version="1.0" encoding="iso-8859-1"?>
<!-- Generator: Adobe Illustrator 19.0.0, SVG Export Plug-In . SVG Version: 6.00 Build 0)  -->
<svg version="1.1" id="Layer_1" xmlns="http://www.w3.org/2000/svg" xmlns:xlink="http://www.w3.org/1999/xlink" x="0px" y="0px"
	 viewBox="0 0 512.001 512.001" style="enable-background:new 0 0 512.001 512.001;" xml:space="preserve">
<g>
	<g>
		<path d="M504.75,77.775c-9.362-4.038-19.17-6.505-29.068-7.429c6.096-3.636,12.295-7.091,18.611-10.301
			c5.908-3.004,8.262-10.226,5.258-16.135c-3.004-5.906-10.225-8.262-16.135-5.258c-11.635,5.915-22.939,12.531-33.848,19.766
			c2.394-14.873,1.27-30.271-3.536-44.974c-2.058-6.299-8.834-9.74-15.133-7.677c-6.3,2.059-9.737,8.834-7.677,15.133
			c5.138,15.722,4.649,32.498-1.1,47.681c-9.858-6.384-21.06-10.289-32.77-11.255c-18.336-1.5-35.674,4.278-48.842,16.299
			c-33.565,30.649-64.818,67.378-89.33,104.79c0.859-10.157,0.575-20.656-0.896-31.167c-3.69-26.282-14.347-50.138-30.008-67.174
			c-16.781-18.254-37.319-26.721-57.83-23.839c-14.093,1.975-26.797,9.152-37.064,20.853c-0.41-3.593-0.229-7.265,0.58-10.895
			c1.908-8.564,7.044-15.877,14.462-20.593c5.593-3.556,7.245-10.971,3.69-16.565c-3.556-5.593-10.971-7.242-16.565-3.69
			c-3.042,1.933-5.853,4.128-8.43,6.536c-6.08-9.533-14.907-17.262-25.561-21.926v0.001c-18.848-8.251-40.871-5.804-57.472,6.389
			c-3.464,2.544-5.303,6.747-4.821,11.019c2.314,20.468,15.455,38.307,34.295,46.553c7.396,3.236,15.278,4.825,23.133,4.825
			c4.238,0,8.466-0.474,12.606-1.391c0.203,2.906,0.625,5.789,1.274,8.624c-15.446-1.624-29.628,1.726-41.321,9.825
			c-14.808,10.267-24.019,27.376-25.936,48.179c-1.266,13.731,0.724,28.711,5.628,43.475H12.005c-6.628,0-12,5.374-12,12v98.367
			c0,0.035-0.005,0.07-0.005,0.104v98.472v98.469c0,6.626,5.372,12,12,12h449.292c6.626,0,12-5.373,12-12v-98.471v-98.472
			c0-0.031-0.005-0.061-0.005-0.092v-98.379c0-6.626-5.374-12-12-12h-37.419c3.854-3.324,7.651-6.68,11.365-10.071
			c13.169-12.023,20.508-28.771,20.667-47.159c0.101-11.75-2.77-23.26-8.232-33.658c15.633-4.348,32.383-3.31,47.577,3.244
			c6.089,2.624,13.146-0.182,15.771-6.268C513.64,87.461,510.835,80.4,504.75,77.775z M75.179,51.929
			c-8.717-3.816-15.349-11.144-18.414-19.972c8.56-3.738,18.443-3.838,27.164-0.018c8.721,3.817,15.354,11.144,18.416,19.969
			C93.782,55.648,83.898,55.746,75.179,51.929z M74.918,115.527c9.921-6.873,21.484-6.549,29.444-5.062
			c13.937,2.594,27.862-2.851,36.341-14.211c4.847-6.492,13.129-14.581,25.072-16.256c12.465-1.745,25.546,4.044,36.827,16.316
			c12.399,13.487,20.89,32.76,23.908,54.262c1.775,12.683,1.499,25.266-0.773,36.88H66.527
			C53.871,157.433,57.045,127.919,74.918,115.527z M449.288,211.457v86.476c0,0.031,0.005,0.062,0.005,0.094v98.375v86.471H24
			v-86.471v-98.364c0-0.035,0.005-0.07,0.005-0.104v-86.476h34.844h176.298h16.897c0.012,0,0.024,0.002,0.035,0.002
			c0.012,0,0.024-0.002,0.037-0.002H449.288z M419.053,159.662c-9.681,8.839-19.906,17.468-30.462,25.726l-11.814-12.941
			c-4.47-4.893-12.057-5.238-16.953-0.773c-4.52,4.127-5.152,10.911-1.703,15.781h-84.14c5.342-7.976,10.998-15.907,16.925-23.744
			l9.764,10.695c2.368,2.593,5.61,3.91,8.865,3.91c2.888,0,5.786-1.037,8.087-3.138c4.895-4.469,5.239-12.059,0.772-16.952
			l-12.395-13.575c9.206-11.099,18.897-21.88,28.926-32.185l10.601,11.612c2.369,2.593,5.611,3.91,8.867,3.91
			c2.888,0,5.785-1.037,8.087-3.137c4.895-4.469,5.24-12.059,0.773-16.953l-11.184-12.251c1.537-1.44,3.072-2.886,4.621-4.299
			c8.185-7.474,19.086-11.066,30.686-10.104c11.935,0.984,23.155,6.619,31.596,15.867c8.443,9.246,13.035,20.932,12.932,32.909
			C431.802,141.663,427.238,152.189,419.053,159.662z"/>
	</g>
</g>
<g>
	<g>
		<circle cx="81.107" cy="248.695" r="13.041"/>
	</g>
</g>
<g>
	<g>
		<circle cx="390.738" cy="248.695" r="13.041"/>
	</g>
</g>
<g>
	<g>
		<circle cx="81.107" cy="347.165" r="13.041"/>
	</g>
</g>
<g>
	<g>
		<circle cx="390.738" cy="347.165" r="13.041"/>
	</g>
</g>
<g>
	<g>
		<circle cx="81.107" cy="445.636" r="13.041"/>
	</g>
</g>
<g>
	<g>
		<circle cx="390.738" cy="445.636" r="13.041"/>
	</g>
</g>
<g>
	<g>
		<path d="M417.079,285.929H56.212c-6.628,0-12,5.374-12,12c0,6.626,5.372,12,12,12h360.867c6.626,0,12-5.374,12-12
			S423.706,285.929,417.079,285.929z"/>
	</g>
</g>
<g>
	<g>
		<path d="M417.079,384.401H56.212c-6.628,0-12,5.374-12,12s5.372,12,12,12h360.867c6.626,0,12-5.374,12-12
			S423.706,384.401,417.079,384.401z"/>
	</g>
</g>
<g>
</g>
<g>
</g>
<g>
</g>
<g>
</g>
<g>
</g>
<g>
</g>
<g>
</g>
<g>
</g>
<g>
</g>
<g>
</g>
<g>
</g>
<g>
</g>
<g>
</g>
<g>
</g>
<g>
</g>
</svg>
