<?xml version="1.0" encoding="iso-8859-1"?>
<!-- Generator: Adobe Illustrator 19.0.0, SVG Export Plug-In . SVG Version: 6.00 Build 0)  -->
<svg version="1.1" id="Capa_1" xmlns="http://www.w3.org/2000/svg" xmlns:xlink="http://www.w3.org/1999/xlink" x="0px" y="0px"
	 viewBox="0 0 512.001 512.001" style="enable-background:new 0 0 512.001 512.001;" xml:space="preserve">
<g>
	<g>
		<path d="M400.307,0H54.294c-8.452,0-15.33,6.877-15.33,15.33v481.34c0,8.452,6.877,15.33,15.33,15.33h346.012
			c40.104,0,72.73-32.626,72.73-72.73V72.73C473.037,32.626,440.411,0,400.307,0z M89.261,481.96L89.261,481.96H69.005V30.04h20.256
			V481.96z M442.997,439.27c0,23.54-19.15,42.691-42.691,42.691H119.299V30.04h281.007c23.54,0,42.691,19.15,42.691,42.69V439.27z"
			/>
	</g>
</g>
<g>
	<g>
		<g>
			<path d="M314.106,220.773C314.106,220.531,314.095,221.013,314.106,220.773L314.106,220.773z"/>
			<path d="M349.157,196.484c-2.121,0-4.224,0.15-6.295,0.445c-5.664-26.787-29.446-46.669-57.649-46.669
				c-24.643,0-45.789,15.209-54.576,36.728c-4.325-1.198-8.828-1.826-13.409-1.826c-27.637,0-50.119,22.483-50.119,50.119
				c0,22.406,14.779,41.421,35.099,47.817v50.868c0,8.295,6.725,15.02,15.02,15.02h131.929c8.295,0,15.02-6.725,15.02-15.02v-51.184
				c17.144-6.173,29.437-22.597,29.437-41.841C393.614,216.428,373.67,196.484,349.157,196.484z M334.137,318.945H232.248v-33.546
				h101.889V318.945z M349.157,255.359H217.228c-11.072,0-20.08-9.007-20.08-20.08c0-11.073,9.008-20.08,20.08-20.08
				c5.085,0,9.775,2.088,13.661,5.362c9.732,8.204,25.112,4.524,25.43-11.37c0-15.932,12.961-28.893,28.893-28.893
				c15.278,0,27.915,11.888,28.841,27.096c0.027,1.426,0.049,10.508,0.053,13.379c0,7.563,6.095,14.412,13.658,14.412
				c4.174,0,8.513-1.872,11.571-4.816l0.013,0.005c2.673-2.482,6.155-3.85,9.808-3.85c7.95,0,14.417,6.468,14.417,14.417
				S357.106,255.359,349.157,255.359z"/>
		</g>
	</g>
</g>
<g>
</g>
<g>
</g>
<g>
</g>
<g>
</g>
<g>
</g>
<g>
</g>
<g>
</g>
<g>
</g>
<g>
</g>
<g>
</g>
<g>
</g>
<g>
</g>
<g>
</g>
<g>
</g>
<g>
</g>
</svg>
